<svg width="29" height="29" viewBox="0 0 29 29" fill="none" xmlns="http://www.w3.org/2000/svg">
<g filter="url(#filter0_d_1675_142)">
<path d="M26 13.5C26 20.4036 20.4036 26 13.5 26C6.59644 26 1 20.4036 1 13.5C1 6.59644 6.59644 1 13.5 1C20.4036 1 26 6.59644 26 13.5Z" fill="white"/>
<path d="M25.5 13.5C25.5 20.1274 20.1274 25.5 13.5 25.5C6.87258 25.5 1.5 20.1274 1.5 13.5C1.5 6.87258 6.87258 1.5 13.5 1.5C20.1274 1.5 25.5 6.87258 25.5 13.5Z" stroke="#3A8ECD"/>
</g>
<path fill-rule="evenodd" clip-rule="evenodd" d="M15.4052 13.4127L9.62109 7.22061L10.933 5.38623L18.4307 13.4127L10.933 21.4391L9.62109 19.6048L15.4052 13.4127Z" fill="#3A8ECD"/>
<defs>
<filter id="filter0_d_1675_142" x="0" y="0" width="29" height="29" filterUnits="userSpaceOnUse" color-interpolation-filters="sRGB">
<feFlood flood-opacity="0" result="BackgroundImageFix"/>
<feColorMatrix in="SourceAlpha" type="matrix" values="0 0 0 0 0 0 0 0 0 0 0 0 0 0 0 0 0 0 127 0" result="hardAlpha"/>
<feOffset dx="1" dy="1"/>
<feGaussianBlur stdDeviation="1"/>
<feComposite in2="hardAlpha" operator="out"/>
<feColorMatrix type="matrix" values="0 0 0 0 0 0 0 0 0 0 0 0 0 0 0 0 0 0 0.25 0"/>
<feBlend mode="normal" in2="BackgroundImageFix" result="effect1_dropShadow_1675_142"/>
<feBlend mode="normal" in="SourceGraphic" in2="effect1_dropShadow_1675_142" result="shape"/>
</filter>
</defs>
</svg>
