<svg width="13" height="14" viewBox="0 0 13 14" fill="none" xmlns="http://www.w3.org/2000/svg">
<path fill-rule="evenodd" clip-rule="evenodd" d="M12.6593 2.45711C13.0498 2.06658 13.0498 1.43342 12.6593 1.04289C12.2688 0.652369 11.6356 0.652369 11.2451 1.04289L6.80766 5.48032L2.37023 1.04289C1.97971 0.652369 1.34654 0.652369 0.956017 1.04289C0.565494 1.43342 0.565495 2.06658 0.956019 2.45711L5.39345 6.89453L0.95598 11.332C0.565455 11.7225 0.565455 12.3557 0.955978 12.7462C1.3465 13.1367 1.97967 13.1367 2.37019 12.7462L6.80766 8.30874L11.2451 12.7462C11.6357 13.1367 12.2688 13.1367 12.6593 12.7462C13.0499 12.3557 13.0499 11.7225 12.6593 11.332L8.22188 6.89453L12.6593 2.45711Z" fill="white"/>
</svg>
