<svg width="61" height="62" viewBox="0 0 61 62" fill="none" xmlns="http://www.w3.org/2000/svg">
<path fill-rule="evenodd" clip-rule="evenodd" d="M50 27C50 39.7025 39.7025 50 27 50C14.2975 50 4 39.7025 4 27C4 14.2975 14.2975 4 27 4C39.7025 4 50 14.2975 50 27ZM44.082 47.9105C39.4284 51.7166 33.4809 54 27 54C12.0883 54 0 41.9117 0 27C0 12.0883 12.0883 0 27 0C41.9117 0 54 12.0883 54 27C54 33.9907 51.3432 40.3609 46.9843 45.1559L60.4142 58.5858C61.1953 59.3668 61.1953 60.6332 60.4142 61.4142C59.6332 62.1953 58.3668 62.1953 57.5858 61.4142L44.082 47.9105Z" fill="#777777"/>
</svg>
