<svg width="31" height="30" viewBox="0 0 31 30" fill="none" xmlns="http://www.w3.org/2000/svg">
<path fill-rule="evenodd" clip-rule="evenodd" d="M15.5 28.6875C23.0594 28.6875 29.1875 22.5594 29.1875 15C29.1875 7.4406 23.0594 1.3125 15.5 1.3125C7.9406 1.3125 1.8125 7.4406 1.8125 15C1.8125 22.5594 7.9406 28.6875 15.5 28.6875ZM15.5 30C23.7843 30 30.5 23.2843 30.5 15C30.5 6.71573 23.7843 0 15.5 0C7.21573 0 0.5 6.71573 0.5 15C0.5 23.2843 7.21573 30 15.5 30Z" fill="#777777"/>
<path fill-rule="evenodd" clip-rule="evenodd" d="M16.5 9C16.5 8.44772 16.0523 8 15.5 8C14.9477 8 14.5 8.44771 14.5 9V17C14.5 17.5523 14.9477 18 15.5 18C16.0523 18 16.5 17.5523 16.5 17V9ZM15.5 22C16.0523 22 16.5 21.5523 16.5 21C16.5 20.4477 16.0523 20 15.5 20C14.9477 20 14.5 20.4477 14.5 21C14.5 21.5523 14.9477 22 15.5 22Z" fill="#777777"/>
</svg>
