<svg width="34" height="29" viewBox="0 0 34 29" fill="none" xmlns="http://www.w3.org/2000/svg">
<path d="M16.0953 7.0255L17 8.94604L17.9047 7.0255C20.3887 1.75196 24.2035 0.401995 27.2146 1.22558C30.3026 2.07021 33 5.30377 33 10.1365C33 12.4648 32.0492 14.7466 30.5269 16.9022C29.006 19.0558 26.9574 21.0218 24.8738 22.6954C22.7946 24.3654 20.71 25.7209 19.1424 26.6597C18.3597 27.1285 17.7086 27.4918 17.2549 27.7371C17.1613 27.7877 17.0762 27.8332 17 27.8736C16.9239 27.8332 16.8387 27.7877 16.7451 27.7371C16.2914 27.4918 15.6403 27.1285 14.8576 26.6597C13.29 25.7209 11.2054 24.3654 9.12622 22.6954C7.04261 21.0218 4.994 19.0558 3.4731 16.9022C1.95084 14.7466 1 12.4648 1 10.1365C1 5.30376 3.69735 2.0702 6.78538 1.22557C9.79649 0.401978 13.6113 1.75194 16.0953 7.0255Z" fill="#FF4356" stroke="#FF4356" stroke-width="2"/>
</svg>
