<svg width="16" height="16" viewBox="0 0 16 16" fill="none" xmlns="http://www.w3.org/2000/svg">
<circle cx="8" cy="8" r="8" fill="#D9D9D9"/>
<path fill-rule="evenodd" clip-rule="evenodd" d="M10.853 5.85402C11.0483 5.65876 11.0483 5.34217 10.853 5.14691C10.6578 4.95165 10.3412 4.95165 10.1459 5.14691L7.99995 7.29288L5.85391 5.14684C5.65865 4.95158 5.34206 4.95158 5.1468 5.14684C4.95154 5.3421 4.95154 5.65868 5.1468 5.85395L7.29284 7.99999L5.1468 10.146C4.95154 10.3413 4.95154 10.6579 5.1468 10.8531C5.34206 11.0484 5.65864 11.0484 5.85391 10.8531L7.99995 8.7071L10.1459 10.8531C10.3412 11.0483 10.6578 11.0483 10.853 10.8531C11.0483 10.6578 11.0483 10.3412 10.853 10.146L8.70706 7.99999L10.853 5.85402Z" fill="#888888"/>
</svg>
