<svg xmlns="http://www.w3.org/2000/svg" width="19" height="19" viewBox="0 0 19 19" fill="none">
<path fill-rule="evenodd" clip-rule="evenodd" d="M7 12.5C10.0376 12.5 12.5 10.0376 12.5 7C12.5 3.96243 10.0376 1.5 7 1.5C3.96243 1.5 1.5 3.96243 1.5 7C1.5 10.0376 3.96243 12.5 7 12.5ZM7 14C10.866 14 14 10.866 14 7C14 3.13401 10.866 0 7 0C3.13401 0 0 3.13401 0 7C0 10.866 3.13401 14 7 14Z" fill="#767676"/>
<path fill-rule="evenodd" clip-rule="evenodd" d="M16.75 18L11.25 12.5L12.3107 11.4393L17.8107 16.9393C18.1035 17.2322 18.1035 17.7071 17.8107 18C17.5178 18.2929 17.0429 18.2929 16.75 18Z" fill="#767676"/>
</svg>