<svg width="20" height="20" viewBox="0 0 20 20" fill="none" xmlns="http://www.w3.org/2000/svg">
<circle cx="10" cy="10" r="10" fill="#FF4356"/>
<path fill-rule="evenodd" clip-rule="evenodd" d="M10.0008 5C10.3399 5 10.6148 5.27491 10.6148 5.61403L10.6148 11.5789C10.6148 11.9181 10.3399 12.193 10.0008 12.193C9.66163 12.193 9.38672 11.9181 9.38672 11.5789L9.38672 5.61404C9.38672 5.27491 9.66163 5 10.0008 5Z" fill="white"/>
<path d="M10.7023 14.3861C10.7023 14.7736 10.3882 15.0878 10.0006 15.0878C9.61301 15.0878 9.29883 14.7736 9.29883 14.3861C9.29883 13.9985 9.61301 13.6843 10.0006 13.6843C10.3882 13.6843 10.7023 13.9985 10.7023 14.3861Z" fill="white"/>
</svg>
